<svg width="48px" height="48px" viewBox="0 0 48 48" version="1.1" xmlns="http://www.w3.org/2000/svg" xmlns:xlink="http://www.w3.org/1999/xlink">
	<!-- Generator: Sketch 52.5 (67469) - http://www.bohemiancoding.com/sketch -->
	<title>
		whatsapp button
	</title>
	<desc>
		Created with Sketch.
	</desc>
	<g id="10-whatsapp" stroke="none" stroke-width="1" fill="none" fill-rule="evenodd">
		<g id="10.01-whatsapp" transform="translate(-1281.000000, -831.000000)">
			<g id="whatsapp-button" transform="translate(1281.000000, 831.000000)">
				<circle id="Oval" fill="#25d366" cx="24" cy="24" r="24">
				</circle>
				<path d="M38,23.6394222 C38,31.1723556 31.8465333,37.2788444 24.2544889,37.2788444 C21.8443111,37.2788444 19.5800444,36.6628444 17.6100889,35.5817333 L10,38 L12.4811111,30.6820444 C11.2295111,28.6268444 10.5086667,26.2163556 10.5086667,23.6394222 C10.5086667,16.1064889 16.6627556,10 24.2544889,10 C31.8471556,10 38,16.1064889 38,23.6394222 Z M24.2544889,12.1721778 C17.8816889,12.1721778 12.6979556,17.3164 12.6979556,23.6394222 C12.6979556,26.1485333 13.5158667,28.4722222 14.8993778,30.3625333 L13.4555111,34.6213333 L17.8966222,33.2098222 C19.7212889,34.4079111 21.9071556,35.1066667 24.2548,35.1066667 C30.6266667,35.1066667 35.8113333,29.9630667 35.8113333,23.6400444 C35.8113333,17.3170222 30.6269778,12.1721778 24.2544889,12.1721778 Z M31.1956889,26.7807111 C31.1107556,26.6416444 30.8864444,26.5576444 30.5498222,26.3905778 C30.2125778,26.2235111 28.5556,25.4143111 28.2476,25.3032444 C27.9386667,25.1918667 27.7134222,25.1358667 27.4891111,25.4703111 C27.2648,25.8050667 26.6189333,26.5576444 26.422,26.7807111 C26.2253778,27.0044 26.0290667,27.0324 25.6918222,26.8650222 C25.3552,26.6979556 24.2697333,26.3445333 22.9826667,25.2058667 C21.9812,24.3198222 21.3048444,23.2259556 21.1082222,22.8908889 C20.9119111,22.5564444 21.0876889,22.3756889 21.256,22.2092444 C21.4078222,22.0592889 21.5932444,21.8188 21.7615556,21.6237333 C21.9304889,21.4283556 21.9864889,21.2892889 22.0981778,21.0659111 C22.2111111,20.8428444 22.1548,20.6477778 22.0701778,20.4800889 C21.9861778,20.3130222 21.3116889,18.6678667 21.0310667,17.9983556 C20.7504444,17.3294667 20.4701333,17.4408444 20.2732,17.4408444 C20.0768889,17.4408444 19.8519556,17.4128444 19.6273333,17.4128444 C19.4027111,17.4128444 19.0374667,17.4965333 18.7285333,17.8309778 C18.4199111,18.1657333 17.5497333,18.9746222 17.5497333,20.6194667 C17.5497333,22.2646222 18.7565333,23.8540889 18.9254667,24.0768444 C19.0937778,24.2996 21.2556889,27.7852889 24.6810222,29.124 C28.1066667,30.4620889 28.1066667,30.0156444 28.7245333,29.9596444 C29.3417778,29.9039556 30.7175111,29.1510667 30.9993778,28.3708 C31.2793778,27.5892889 31.2793778,26.9200889 31.1956889,26.7807111 Z" id="WhatsApp" fill="#FFFFFF" fill-rule="nonzero">
				</path>
			</g>
		</g>
	</g>
</svg>
